<?xml version="1.0" encoding="UTF-8" standalone="no"?>
<!DOCTYPE svg PUBLIC "-//W3C//DTD SVG 1.1//EN" "http://www.w3.org/Graphics/SVG/1.1/DTD/svg11.dtd">
<svg version="1.1" xmlns="http://www.w3.org/2000/svg" xmlns:xlink="http://www.w3.org/1999/xlink" preserveAspectRatio="xMidYMid meet" viewBox="8.999999999999964 -0.9999999999999929 19.999999999999993 19.999999999999993" width="18" height="18"><defs><path d="M19 0L18.1 8.1L10 9L18.1 9.9L19 18L19.9 9.9L28 9L19.9 8.1L19 0Z" id="a24hvIme70"></path></defs><g><g><g><filter id="shadow770305" x="3" y="-7" width="32" height="32" filterUnits="userSpaceOnUse" primitiveUnits="userSpaceOnUse"><feFlood></feFlood><feComposite in2="SourceAlpha" operator="in"></feComposite><feGaussianBlur stdDeviation="1"></feGaussianBlur><feOffset dx="0" dy="0" result="afterOffset"></feOffset><feFlood flood-color="#000000" flood-opacity="0.34"></feFlood><feComposite in2="afterOffset" operator="in"></feComposite><feMorphology operator="dilate" radius="0"></feMorphology><feComposite in2="SourceAlpha" operator="out"></feComposite></filter><path d="M19 0L18.1 8.1L10 9L18.1 9.9L19 18L19.9 9.9L28 9L19.9 8.1L19 0Z" id="e3cXBkFFLT" fill="white" fill-opacity="1" filter="url(#shadow770305)"></path></g><use xlink:href="#a24hvIme70" opacity="1" fill="#ffe700" fill-opacity="1"></use><g><filter id="shadow16476021" x="1" y="-9" width="37" height="37" filterUnits="userSpaceOnUse" primitiveUnits="userSpaceOnUse"><feFlood></feFlood><feComposite in2="SourceAlpha" operator="out"></feComposite><feGaussianBlur stdDeviation="1"></feGaussianBlur><feOffset dx="1" dy="1" result="afterOffset"></feOffset><feFlood flood-color="#ffffff" flood-opacity="0.8"></feFlood><feComposite in2="afterOffset" operator="in"></feComposite><feMorphology operator="dilate" radius="1"></feMorphology><feComposite in2="SourceAlpha" operator="in"></feComposite></filter><path d="M19 0L18.1 8.1L10 9L18.1 9.9L19 18L19.9 9.9L28 9L19.9 8.1L19 0Z" id="b3WSVIbif" fill="white" fill-opacity="1" filter="url(#shadow16476021)"></path></g></g></g></svg>