<?xml version="1.0" standalone="no"?>
<!DOCTYPE svg PUBLIC "-//W3C//DTD SVG 20010904//EN"
 "http://www.w3.org/TR/2001/REC-SVG-20010904/DTD/svg10.dtd">
<svg version="1.0" xmlns="http://www.w3.org/2000/svg"
 width="160.000000pt" height="160.000000pt" viewBox="0 0 160.000000 160.000000"
 preserveAspectRatio="xMidYMid meet">
<metadata>
Created by potrace 1.11, written by Peter Selinger 2001-2013
</metadata>
<g transform="translate(0.000000,160.000000) scale(0.100000,-0.100000)"
fill="#000000" stroke="none">
<path d="M197 1584 c-91 -33 -154 -102 -183 -200 -13 -44 -14 -135 -12 -605 3
-542 3 -555 24 -600 31 -66 86 -123 147 -150 l52 -24 570 0 c537 0 573 1 619
19 66 25 128 84 157 149 l24 52 3 548 c2 463 0 558 -12 608 -19 72 -46 115
-100 155 -88 66 -68 64 -689 63 -448 -1 -570 -4 -600 -15z"/>
</g>
</svg>
